# xmcd CD database file
#
# Track frame offsets:
#	187
#	15265
#	33672
#	52987
#	71327
#	92702
#	110835
#	132037
#	147217
#	171510
#	190815
#
# Disc length: 2602 seconds
#
# Revision: 0
# Processed by: cddbd v1.5PL3 Copyright (c) Steve Scherf et al.
# Submitted via: CDex 1.50beta8
#
DISCID=930a280b
DTITLE=中村あゆみ - Midnight Kids
DYEAR=1985
DGENRE=Pop
TTITLE0=Midnight Kids
TTITLE1=Heartbreak-Collection
TTITLE2=裸足の摩天楼
TTITLE3=彼女はノーマル
TTITLE4=悲しみのセンセイション
TTITLE5=Crazy-Clubの夜は更けて
TTITLE6=シンデレラ・リバティ#9
TTITLE7=僕のスノビズム
TTITLE8=A BOY
TTITLE9=Million Nights
TTITLE10=Kids On The Street
EXTD=YEAR: 1985
EXTT0=
EXTT1=
EXTT2=
EXTT3=
EXTT4=
EXTT5=
EXTT6=
EXTT7=
EXTT8=
EXTT9=
EXTT10=
PLAYORDER=
